<svg xmlns="http://www.w3.org/2000/svg" viewBox="0 0 1200 630" role="img" aria-labelledby="title desc">
  <title id="title">研究關鍵字地圖</title>
  <desc id="desc">先進封裝位於中心，連到鍵合、載板、測試、光互連與系統供電等研究方向。</desc>
  <defs><linearGradient id="bg" x2="1" y2="1"><stop stop-color="#edf3f9"/><stop offset="1" stop-color="#f6f9f2"/></linearGradient></defs>
  <rect width="1200" height="630" fill="url(#bg)"/>
  <g stroke="#c1d3dc" stroke-width="5" fill="none">
    <path d="M600 315L233 135M600 315L970 128M600 315L1110 368M600 315L866 552M600 315L301 535M600 315L88 365"/>
  </g>
  <circle cx="600" cy="315" r="138" fill="#174461"/>
  <circle cx="600" cy="315" r="126" fill="none" stroke="#7fb5d5" stroke-width="3"/>
  <g fill="#fff" font-family="Arial, sans-serif" text-anchor="middle">
    <text x="600" y="304" font-size="36" font-weight="700">PACKAGING</text>
    <text x="600" y="352" font-size="28" letter-spacing="4">RESEARCH MAP</text>
  </g>
  <g fill="#fff" stroke="#8eb6c7" stroke-width="3">
    <rect x="90" y="85" width="278" height="92" rx="24"/><rect x="828" y="78" width="290" height="92" rx="24"/>
    <rect x="879" y="324" width="262" height="92" rx="24"/><rect x="722" y="499" width="290" height="92" rx="24"/>
    <rect x="153" y="484" width="284" height="92" rx="24"/><rect x="53" y="323" width="260" height="92" rx="24"/>
  </g>
  <g fill="#23536d" font-family="Arial, sans-serif" font-size="27" font-weight="700" text-anchor="middle">
    <text x="229" y="143">BONDING</text><text x="973" y="136">SUBSTRATE</text>
    <text x="1010" y="381">TEST &amp; QA</text><text x="866" y="557">OPTICAL I/O</text>
    <text x="295" y="542">POWER &amp; SI/PI</text><text x="183" y="381">MATERIALS</text>
  </g>
</svg>
